<svg width="31" height="31" viewBox="0 0 31 31" fill="none" xmlns="http://www.w3.org/2000/svg">
<path fill-rule="evenodd" clip-rule="evenodd" d="M10.0325 30.6748C9.9365 30.7779 9.82247 30.8597 9.69694 30.9155C9.57141 30.9713 9.43683 31 9.30091 31C9.165 31 9.03042 30.9713 8.90489 30.9155C8.77935 30.8597 8.66533 30.7779 8.56934 30.6748L0.303026 21.8182C0.109002 21.6103 -6.46489e-09 21.3284 0 21.0344C6.46489e-09 20.7404 0.109002 20.4584 0.303026 20.2506C0.49705 20.0427 0.760203 19.9259 1.0346 19.9259C1.30899 19.9259 1.57214 20.0427 1.76616 20.2506L8.26762 27.2185V5.53536C8.26762 4.06729 8.81194 2.65935 9.78084 1.62127C10.7497 0.583188 12.0638 0 13.4341 0H29.9667C30.2408 0 30.5036 0.116638 30.6974 0.324254C30.8911 0.53187 31 0.813458 31 1.10707C31 1.40069 30.8911 1.68227 30.6974 1.88989C30.5036 2.09751 30.2408 2.21414 29.9667 2.21414H13.4341C12.6119 2.21414 11.8235 2.56406 11.2421 3.18691C10.6608 3.80976 10.3342 4.65452 10.3342 5.53536V27.2185L16.8357 20.2506C17.0297 20.0427 17.2928 19.9259 17.5672 19.9259C17.8416 19.9259 18.1048 20.0427 18.2988 20.2506C18.4928 20.4584 18.6018 20.7404 18.6018 21.0344C18.6018 21.3284 18.4928 21.6103 18.2988 21.8182L10.0325 30.6748Z" fill="black"/>
</svg>
