<svg width="123" height="123" viewBox="0 0 123 123" fill="#FFFF" xmlns="http://www.w3.org/2000/svg">
<path d="M15.0998 29.9102C23.1978 29.9102 29.7626 23.3343 29.7626 15.2225C29.7626 7.11061 23.1978 0.534668 15.0998 0.534668C7.00176 0.534668 0.437012 7.11061 0.437012 15.2225C0.437012 23.3343 7.00176 29.9102 15.0998 29.9102Z" fill="white"/>
<path d="M43.6076 41.0402V122.528H68.8654V82.2305C68.8654 71.5972 70.8624 61.2997 84.0241 61.2997C97.0048 61.2997 97.1656 73.4567 97.1656 82.9017V122.535H122.437V77.8469C122.437 55.8958 117.719 39.0263 92.106 39.0263C79.8089 39.0263 71.5661 45.7862 68.1952 52.1836H67.8535V41.0402H43.6076ZM2.44727 41.0402H27.7453V122.528H2.44727V41.0402Z" fill="white"/>
</svg>
