<svg width="37" height="53" viewBox="0 0 37 53" fill="none" xmlns="http://www.w3.org/2000/svg">
<path d="M19.522 12.8535H26.725V14.3235H19.522V44.826C19.522 45.806 19.6935 46.492 20.0365 46.884C20.3795 47.276 20.943 47.472 21.727 47.472C22.315 47.472 22.9765 47.3005 23.7115 46.9575C24.4465 46.6145 25.108 46.0755 25.696 45.3405L26.7985 46.2225C24.5445 50.0935 21.0655 52.029 16.3615 52.029C12.9805 52.029 10.457 51.196 8.791 49.53C7.762 48.501 7.076 47.227 6.733 45.708C6.439 44.189 6.292 42.0575 6.292 39.3135V14.3235H0.706V12.8535H6.292V4.1805C8.938 4.1805 11.3145 3.9355 13.4215 3.4455C15.5775 2.9065 17.611 2.0735 19.522 0.946496V12.8535ZM32.7417 44.2257C34.1137 44.2257 35.157 44.5402 35.8715 45.169C36.6147 45.7978 36.9863 46.7125 36.9863 47.913C36.9863 49.1135 36.6147 50.0282 35.8715 50.657C35.157 51.2858 34.1137 51.6003 32.7417 51.6003C31.3697 51.6003 30.3121 51.2858 29.5689 50.657C28.8543 50.0282 28.497 49.1135 28.497 47.913C28.497 46.7125 28.8543 45.7978 29.5689 45.169C30.3121 44.5402 31.3697 44.2257 32.7417 44.2257Z" fill="#513CD6"/>
</svg>
