<svg width="122" height="122" viewBox="0 0 122 122" fill="#FFFF" xmlns="http://www.w3.org/2000/svg">
<path d="M60.9836 29.7011C43.6635 29.7011 29.6853 43.6795 29.6853 61C29.6853 78.3204 43.6635 92.2989 60.9836 92.2989C78.3037 92.2989 92.2819 78.3204 92.2819 61C92.2819 43.6795 78.3037 29.7011 60.9836 29.7011ZM60.9836 81.342C49.7827 81.342 40.642 72.2011 40.642 61C40.642 49.7989 49.7827 40.658 60.9836 40.658C72.1845 40.658 81.3252 49.7989 81.3252 61C81.3252 72.2011 72.1845 81.342 60.9836 81.342ZM93.5638 21.1248C89.5199 21.1248 86.2542 24.3905 86.2542 28.4345C86.2542 32.4785 89.5199 35.7442 93.5638 35.7442C97.6077 35.7442 100.873 32.4937 100.873 28.4345C100.875 27.4742 100.686 26.5232 100.319 25.6358C99.9524 24.7484 99.4141 23.9421 98.7351 23.2631C98.0561 22.5841 97.2498 22.0457 96.3624 21.6788C95.4751 21.3119 94.524 21.1236 93.5638 21.1248ZM121.993 61C121.993 52.5763 122.069 44.2289 121.596 35.8205C121.123 26.0539 118.895 17.386 111.754 10.2442C104.597 3.08712 95.9443 0.874377 86.1779 0.401307C77.7544 -0.0717627 69.4071 0.00453909 60.9989 0.00453909C52.5753 0.00453909 44.2281 -0.0717627 35.8198 0.401307C26.0534 0.874377 17.3857 3.10238 10.244 10.2442C3.08706 17.4013 0.87436 26.0539 0.401299 35.8205C-0.0717613 44.2442 0.00453901 52.5916 0.00453901 61C0.00453901 69.4084 -0.0717613 77.7711 0.401299 86.1795C0.87436 95.9461 3.10232 104.614 10.244 111.756C17.401 118.913 26.0534 121.126 35.8198 121.599C44.2434 122.072 52.5906 121.995 60.9989 121.995C69.4224 121.995 77.7696 122.072 86.1779 121.599C95.9443 121.126 104.612 118.898 111.754 111.756C118.911 104.599 121.123 95.9461 121.596 86.1795C122.085 77.7711 121.993 69.4237 121.993 61ZM108.564 96.9838C107.45 99.7612 106.107 101.837 103.956 103.973C101.804 106.125 99.7441 107.468 96.9667 108.582C88.94 111.771 69.8802 111.054 60.9836 111.054C52.087 111.054 33.012 111.771 24.9852 108.597C22.2079 107.483 20.1325 106.14 17.9961 103.988C15.8444 101.837 14.5016 99.7765 13.3876 96.9991C10.2135 88.9569 10.9307 69.8968 10.9307 61C10.9307 52.1032 10.2135 33.0279 13.3876 25.0009C14.5016 22.2236 15.8444 20.1481 17.9961 18.0117C20.1478 15.8753 22.2079 14.5171 24.9852 13.4031C33.012 10.2289 52.087 10.9462 60.9836 10.9462C69.8802 10.9462 88.9552 10.2289 96.982 13.4031C99.7593 14.5171 101.835 15.86 103.971 18.0117C106.123 20.1634 107.466 22.2236 108.58 25.0009C111.754 33.0279 111.036 52.1032 111.036 61C111.036 69.8968 111.754 88.9569 108.564 96.9838Z" fill="white"/>
</svg>
